<svg width="16" height="16" viewBox="0 0 16 16" fill="none" xmlns="http://www.w3.org/2000/svg">
<path d="M11.4896 1.50005H4.49622C4.0999 1.49969 3.70743 1.57786 3.3415 1.73005C2.97556 1.88224 2.64341 2.10542 2.36422 2.38672C2.08612 2.66711 1.86653 2.99998 1.7182 3.36599C1.56988 3.73199 1.49578 4.12382 1.50022 4.51872V11.4814C1.49541 11.8763 1.56934 12.2683 1.71768 12.6343C1.86603 13.0004 2.08582 13.3332 2.36422 13.6134C2.64333 13.8946 2.97537 14.1177 3.34119 14.2699C3.70701 14.4221 4.09935 14.5003 4.49555 14.5H7.67089V9.85605H6.45755C6.38245 9.85553 6.31054 9.82555 6.25731 9.77257C6.20407 9.71958 6.17376 9.64782 6.17289 9.57272V8.08205C6.1728 8.04374 6.1803 8.0058 6.19496 7.9704C6.20962 7.93501 6.23115 7.90287 6.2583 7.87585C6.28545 7.84882 6.31768 7.82744 6.35314 7.81294C6.3886 7.79845 6.42658 7.79112 6.46489 7.79138H7.67089V6.33805C7.63707 5.99457 7.679 5.64785 7.79372 5.32233C7.90845 4.99681 8.09318 4.70042 8.33489 4.45405C8.57684 4.20656 8.86986 4.01482 9.19352 3.8922C9.51718 3.76957 9.86368 3.71901 10.2089 3.74405H11.4449C11.4827 3.74431 11.5201 3.75205 11.5549 3.76682C11.5897 3.7816 11.6213 3.80311 11.6477 3.83013C11.6742 3.85715 11.695 3.88913 11.7091 3.92425C11.7231 3.95936 11.7301 3.9969 11.7296 4.03472V5.29472C11.7296 5.33201 11.7222 5.36893 11.7078 5.40335C11.6935 5.43778 11.6725 5.46903 11.6461 5.4953C11.6196 5.52158 11.5882 5.54236 11.5537 5.55644C11.5191 5.57053 11.4822 5.57765 11.4449 5.57738H10.6962C9.87222 5.57738 9.71489 5.96538 9.71489 6.53138V7.78405H11.5122C11.5527 7.78384 11.5928 7.79227 11.6298 7.80877C11.6669 7.82527 11.6999 7.84946 11.7269 7.87973C11.7538 7.91001 11.774 7.94567 11.786 7.98435C11.7981 8.02302 11.8018 8.06383 11.7969 8.10405L11.6169 9.59538C11.6096 9.6655 11.5763 9.73036 11.5237 9.77723C11.471 9.8241 11.4027 9.8496 11.3322 9.84872H9.72222V14.4927H11.5049C11.9011 14.493 12.2934 14.4148 12.6593 14.2626C13.0251 14.1104 13.3571 13.8873 13.6362 13.606C13.9144 13.3256 14.134 12.9926 14.2824 12.6265C14.4307 12.2603 14.5047 11.8684 14.5002 11.4734V4.51872C14.5054 4.12245 14.4312 3.72916 14.2819 3.36207C14.1325 2.99498 13.9112 2.66152 13.6309 2.38138C13.3502 2.09993 13.0163 1.87709 12.6487 1.72579C12.2811 1.57449 11.8871 1.49776 11.4896 1.50005Z" fill="#FDFFFF"/>
</svg>
